<?xml version="1.0" standalone="no"?>
<!DOCTYPE svg PUBLIC "-//W3C//DTD SVG 20010904//EN"
 "http://www.w3.org/TR/2001/REC-SVG-20010904/DTD/svg10.dtd">
<svg version="1.0" xmlns="http://www.w3.org/2000/svg"
 width="354.000000pt" height="354.000000pt" viewBox="0 0 354.000000 354.000000"
 preserveAspectRatio="xMidYMid meet">
<metadata>
Created by potrace 1.14, written by Peter Selinger 2001-2017
</metadata>
<g transform="translate(0.000000,354.000000) scale(0.100000,-0.100000)"
fill="#000000" stroke="none">
<path d="M2100 2846 l0 -113 -87 -7 c-182 -15 -291 -62 -434 -188 l-89 -79
-163 55 c-141 49 -172 56 -239 56 -103 0 -186 -27 -275 -90 -86 -61 -134 -115
-174 -195 -93 -191 -52 -429 103 -589 l57 -59 -11 -46 c-19 -78 -14 -257 9
-328 35 -106 90 -192 184 -284 142 -141 287 -200 489 -198 52 1 109 4 125 8
27 6 36 1 85 -50 71 -72 138 -115 223 -140 56 -18 87 -20 180 -17 100 3 119 7
172 33 87 44 182 144 236 251 43 86 44 88 48 204 3 117 3 120 -44 271 -26 85
-49 157 -51 160 -2 4 19 21 46 39 93 60 174 175 216 307 8 26 18 94 21 151 l6
102 108 0 109 0 0 95 0 95 -133 0 -134 0 -42 86 c-29 58 -64 108 -108 155 -61
65 -173 145 -235 168 l-28 11 0 125 0 125 -85 0 -85 0 0 -114z m123 -509 c104
-47 197 -170 197 -259 0 -36 -43 -129 -93 -202 l-20 -28 -48 128 c-27 71 -49
134 -49 140 0 28 -65 66 -195 115 -77 28 -142 53 -143 55 -7 5 75 52 119 68
63 23 161 16 232 -17z m-834 -212 c139 -52 260 -99 269 -104 19 -11 12 -14
-110 -65 -170 -70 -353 -96 -476 -67 -64 16 -128 69 -141 118 -19 68 21 177
77 208 47 27 114 11 381 -90z m727 -721 c79 -204 97 -259 98 -306 1 -69 -20
-103 -84 -136 -56 -28 -123 -29 -167 -2 -136 83 -133 358 8 665 27 59 33 67
39 49 5 -11 52 -133 106 -270z"/>
</g>
</svg>
